# Blender v2.92.0 OBJ File: ''
# www.blender.org
o truncated_tetrahedron
v 0.168243 -0.021355 1.101491
v -0.495221 0.433254 1.216124
v -0.879957 -0.025008 0.675787
v 1.060647 -0.003924 0.406940
v 0.904851 0.009853 -0.713313
v 1.289587 0.468115 -0.172977
v -1.035753 -0.011230 -0.444466
v -0.806813 0.460809 -1.024384
v -0.143350 0.006200 -1.139017
v -0.266281 0.905293 0.636207
v 0.626123 0.922723 -0.058344
v -0.422077 0.919070 -0.484047
vn 0.3695 -0.4701 0.8015
vn -0.3612 0.2964 0.8841
vn -0.8182 -0.4793 0.3175
vn 0.7043 -0.4618 0.5392
vn 0.5333 -0.4279 -0.7297
vn 0.9260 0.3581 -0.1195
vn -0.8753 -0.4728 -0.1014
vn -0.5852 0.3452 -0.7338
vn 0.1310 -0.4297 -0.8934
vn -0.1869 0.8780 0.4407
vn 0.4387 0.8980 -0.0332
vn -0.3024 0.8936 -0.3317
s 1
f 1//1 2//2 3//3
f 4//4 5//5 6//6
f 7//7 8//8 9//9
f 10//10 11//11 12//12
f 9//9 5//5 3//3
f 11//11 10//10 1//1
f 12//12 8//8 7//7
f 11//11 9//9 12//12
f 4//4 1//1 5//5
f 1//1 3//3 5//5
f 3//3 7//7 9//9
f 2//2 1//1 10//10
f 1//1 4//4 11//11
f 4//4 6//6 11//11
f 7//7 3//3 12//12
f 3//3 2//2 10//10
f 12//12 3//3 10//10
f 11//11 6//6 5//5
f 5//5 9//9 11//11
f 9//9 8//8 12//12
